<?xml version="1.0" standalone="no"?>
<!DOCTYPE svg PUBLIC "-//W3C//DTD SVG 20010904//EN"
 "http://www.w3.org/TR/2001/REC-SVG-20010904/DTD/svg10.dtd">
<svg version="1.0" xmlns="http://www.w3.org/2000/svg"
 width="300.000000pt" height="300.000000pt" viewBox="0 0 300.000000 300.000000"
 preserveAspectRatio="xMidYMid meet">
<metadata>
Created by potrace 1.14, written by Peter Selinger 2001-2017
</metadata>
<g transform="translate(0.000000,300.000000) scale(0.100000,-0.100000)"
fill="#000000" stroke="none">
<path d="M1079 2987 c-9 -7 -18 -19 -22 -27 -4 -11 -6 -10 -6 4 -1 20 -1 20
-17 0 -13 -16 -15 -16 -10 -1 3 9 1 17 -4 17 -6 0 -10 -8 -10 -17 -1 -17 -1
-17 -11 0 -8 14 -14 16 -25 6 -7 -6 -11 -15 -8 -20 3 -5 -2 -6 -10 -3 -9 3
-13 11 -9 17 3 6 1 7 -6 3 -9 -6 -9 -11 1 -24 12 -14 10 -14 -11 -2 -21 11
-23 10 -18 -4 3 -8 1 -18 -5 -22 -7 -4 -8 -3 -4 4 8 14 -3 15 -23 3 -18 -12
-43 -2 -34 13 4 6 -13 -5 -37 -24 -24 -19 -41 -29 -37 -22 5 7 3 12 -3 12 -6
0 -8 5 -4 13 8 13 -26 -11 -38 -27 -8 -12 -38 -17 -38 -7 0 4 -7 8 -15 8 -18
0 -19 -9 -4 -24 9 -9 8 -11 -4 -9 -9 1 -20 6 -24 11 -5 4 -1 5 7 0 8 -5 12 -4
7 0 -10 12 -57 13 -50 1 4 -5 -1 -6 -12 -2 -16 6 -16 4 -4 -10 13 -16 12 -16
-8 -6 -16 9 -24 9 -29 0 -5 -7 -3 -8 6 -3 9 5 11 4 6 -4 -6 -9 -11 -9 -21 -1
-9 7 -16 6 -25 -5 -7 -8 -17 -12 -24 -8 -6 4 -5 -1 3 -10 8 -10 11 -20 7 -24
-3 -3 -6 -2 -6 4 0 6 -7 14 -16 17 -14 5 -15 4 -5 -8 9 -11 7 -15 -10 -19 -11
-3 -18 -10 -14 -16 4 -7 -1 -8 -12 -4 -16 6 -17 5 -3 -12 14 -17 14 -18 -7 -7
-20 11 -21 10 -18 -9 4 -18 2 -19 -13 -8 -9 7 -14 10 -10 5 11 -13 -12 -48
-27 -42 -9 3 -12 -3 -10 -20 1 -17 -2 -24 -10 -20 -22 8 -26 -6 -8 -26 16 -18
16 -19 -11 -8 -26 9 -27 9 -16 -5 7 -8 9 -15 4 -15 -5 0 -2 -5 6 -11 11 -8 9
-9 -10 -3 -14 3 -22 3 -18 -1 4 -4 3 -17 -3 -28 -8 -15 -8 -18 1 -12 9 5 9 3
2 -11 -5 -11 -8 -27 -7 -37 2 -9 -1 -15 -6 -11 -5 3 -7 9 -5 13 3 4 1 13 -3
20 -6 9 -8 4 -8 -15 0 -15 -8 -33 -17 -40 -13 -9 -14 -13 -4 -16 11 -4 10 -8
-1 -21 -7 -9 -17 -15 -21 -12 -4 3 -14 -3 -21 -12 -8 -10 -9 -14 -2 -10 6 4
14 3 18 -3 3 -5 -2 -10 -12 -10 -14 0 -15 -2 -4 -9 9 -6 10 -10 2 -12 -7 -3
-13 -19 -13 -37 -1 -18 -4 -30 -7 -25 -3 4 -12 9 -19 11 -9 1 -8 -5 4 -23 16
-24 16 -25 -2 -19 -15 6 -17 4 -7 -6 12 -13 6 -43 -7 -35 -4 3 -11 -2 -14 -11
-3 -8 -2 -12 4 -9 6 3 10 2 10 -4 0 -5 -4 -12 -8 -15 -4 -2 -8 -24 -7 -48 0
-31 -6 -48 -20 -61 -20 -18 -20 -18 4 -7 19 10 22 10 15 -2 -5 -7 -9 -26 -10
-42 -1 -15 -6 -31 -12 -35 -7 -4 -8 -12 -2 -20 5 -9 2 -24 -8 -40 -15 -24 -15
-25 0 -13 12 10 18 10 24 1 5 -8 3 -9 -6 -4 -10 6 -12 3 -8 -13 4 -15 2 -19
-8 -15 -8 3 -14 -1 -14 -10 0 -8 -7 -17 -15 -21 -9 -3 -12 -12 -8 -22 4 -12 3
-15 -5 -10 -8 5 -10 1 -5 -10 4 -12 3 -15 -5 -10 -9 5 -9 1 -3 -17 13 -32 -16
-65 -39 -44 -12 10 -12 9 -2 -4 6 -9 8 -20 4 -24 -4 -5 2 -5 12 -1 15 5 17 4
8 -7 -7 -8 -8 -18 -4 -23 4 -4 0 -3 -9 4 -15 11 -17 5 -17 -58 0 -53 4 -73 14
-77 9 -3 14 -17 12 -37 -1 -17 2 -38 7 -45 5 -10 4 -12 -3 -7 -7 4 -12 2 -12
-3 0 -6 5 -11 10 -11 6 0 10 -5 10 -11 0 -5 -6 -7 -12 -4 -7 4 -2 -3 11 -15
21 -18 22 -23 10 -31 -13 -8 -6 -13 14 -10 4 0 7 -6 7 -15 0 -9 5 -12 12 -8 7
5 8 3 3 -5 -5 -9 -10 -10 -18 -2 -6 6 -16 11 -22 11 -5 0 4 -9 20 -20 17 -11
24 -20 16 -20 -11 0 -9 -4 5 -16 10 -8 13 -12 5 -8 -9 4 -12 3 -8 -4 4 -5 17
-7 30 -4 21 5 21 5 4 -12 -23 -23 -22 -29 3 -16 22 12 26 1 8 -20 -11 -12 -10
-12 5 -1 9 7 17 9 17 5 0 -13 58 -37 70 -29 5 3 7 0 5 -7 -4 -9 2 -14 15 -15
12 -1 18 2 14 9 -4 7 -2 8 5 4 9 -6 9 -11 0 -22 -6 -8 -7 -14 -2 -14 5 0 10
-7 10 -15 0 -8 -4 -15 -9 -15 -4 0 -8 5 -8 12 0 6 -3 8 -7 4 -5 -4 0 -14 11
-21 13 -10 17 -23 14 -43 -3 -23 -1 -29 11 -24 9 3 12 1 7 -6 -4 -7 -3 -12 2
-12 5 0 7 -12 4 -26 -3 -18 -1 -25 6 -20 6 3 14 1 18 -5 4 -7 3 -9 -3 -6 -18
11 -22 -31 -4 -45 14 -11 14 -11 4 3 -10 12 -10 16 0 16 7 0 13 -13 14 -29 1
-25 -1 -27 -16 -16 -14 12 -15 11 -2 -5 9 -11 17 -14 25 -8 8 7 12 4 12 -9 0
-10 -3 -17 -6 -15 -4 2 -7 -2 -7 -11 0 -10 7 -13 21 -9 18 5 19 5 4 -5 -9 -6
-15 -17 -12 -25 4 -8 10 -12 15 -9 5 3 9 0 9 -6 0 -6 5 -8 11 -5 6 4 5 -3 -3
-15 -11 -18 -11 -23 0 -27 9 -4 10 -9 2 -18 -7 -9 -6 -16 5 -25 8 -7 12 -17 8
-23 -3 -6 -1 -7 5 -3 7 4 12 1 12 -9 0 -10 5 -14 13 -9 9 6 9 4 -1 -7 -17 -19
-15 -34 3 -19 9 7 18 10 22 6 3 -3 1 -6 -6 -6 -7 0 -9 -5 -6 -10 4 -6 10 -8
14 -6 4 3 5 -8 3 -25 -3 -18 0 -29 7 -29 7 0 9 5 5 12 -4 6 -3 8 3 5 5 -3 8
-20 7 -37 -2 -25 3 -33 22 -40 17 -7 22 -14 17 -27 -6 -16 -5 -17 13 -3 19 14
19 14 0 -8 -12 -13 -14 -22 -7 -22 7 0 9 -4 6 -10 -4 -6 1 -7 12 -3 16 6 17 5
3 -12 -14 -17 -13 -18 3 -12 11 4 16 3 12 -3 -3 -5 3 -19 13 -31 12 -12 18
-28 14 -41 -4 -16 -2 -19 8 -13 9 6 12 4 8 -7 -8 -19 40 -81 54 -71 7 4 9 0 5
-10 -3 -10 -2 -17 3 -17 6 0 10 -5 10 -11 0 -5 -5 -7 -12 -3 -7 4 -8 3 -4 -4
4 -6 13 -9 21 -5 11 4 13 1 9 -11 -4 -11 -1 -16 10 -16 9 0 16 -5 16 -11 0 -5
-4 -7 -10 -4 -6 3 -7 -1 -4 -10 5 -12 9 -13 21 -4 8 7 13 8 12 3 -1 -5 -1 -20
0 -34 1 -21 3 -22 12 -10 9 12 10 11 6 -7 -4 -20 -3 -21 15 -12 13 7 18 7 14
1 -3 -6 3 -13 14 -17 11 -3 20 -13 20 -21 0 -17 16 -19 26 -2 5 7 3 8 -6 3 -9
-5 -11 -4 -6 4 10 15 29 3 22 -15 -3 -7 0 -16 6 -20 7 -4 8 -3 4 4 -5 8 1 11
18 10 13 -1 22 -6 20 -10 -3 -5 -10 -6 -15 -3 -5 4 -6 -2 -2 -11 4 -11 8 -13
11 -6 5 15 25 15 40 0 18 -18 51 -18 45 1 -4 14 -3 14 9 0 12 -15 46 -17 276
-17 202 -1 261 2 255 11 -4 7 0 6 10 -2 14 -11 17 -11 17 0 0 10 2 11 8 2 11
-18 46 -9 58 15 12 24 25 19 18 -6 -5 -14 -4 -14 6 1 6 9 16 14 22 11 7 -5 9
-1 5 9 -3 9 -2 19 3 22 6 4 10 2 10 -3 0 -6 6 -12 13 -15 8 -3 14 1 14 9 0 7
-4 11 -9 8 -4 -3 -5 2 -1 12 6 15 7 15 15 0 7 -13 13 -14 23 -6 8 7 20 8 26 4
8 -4 9 -3 5 4 -4 7 -2 12 4 12 6 0 9 3 7 8 -3 4 2 14 11 22 14 13 15 12 9 -4
-5 -12 -3 -16 5 -13 7 2 12 10 10 17 -2 8 3 10 14 6 14 -5 15 -4 5 8 -9 11 -9
16 0 22 8 4 9 3 5 -4 -4 -7 -1 -12 9 -12 12 0 15 5 11 16 -6 15 -4 15 11 3 15
-12 16 -12 11 2 -5 12 -1 15 18 13 21 -2 23 0 13 12 -10 12 -9 13 6 7 14 -5
17 -3 12 10 -4 11 -2 14 8 10 8 -3 12 -10 8 -16 -3 -6 -1 -7 6 -3 6 4 9 17 6
29 -2 12 -2 16 1 9 3 -6 11 -9 16 -6 7 5 8 2 3 -7 -7 -11 -6 -12 6 -2 9 7 30
14 48 15 20 1 40 11 51 25 10 13 23 23 29 23 6 0 11 5 11 11 0 5 -4 7 -10 4
-5 -3 -10 -1 -10 5 0 7 7 9 16 6 9 -3 18 -6 20 -6 3 0 2 -5 -2 -12 -4 -7 -3
-8 4 -4 6 4 9 13 5 21 -4 11 -1 13 13 8 14 -5 16 -3 11 13 -7 18 -6 18 9 -1
16 -20 16 -20 11 2 -3 15 -1 20 9 16 8 -3 11 -10 7 -16 -3 -6 -1 -7 6 -3 8 5
9 12 2 20 -8 9 -3 12 17 12 20 -1 27 4 26 16 -1 14 2 15 15 8 13 -6 18 -5 18
5 0 8 -5 11 -11 8 -7 -4 -8 -2 -1 5 6 5 19 12 30 14 11 2 19 9 18 16 -2 7 4 9
14 5 13 -5 15 -2 10 11 -6 14 -3 17 9 12 14 -6 15 -4 4 9 -11 14 -10 17 8 22
12 3 22 10 22 15 0 5 4 7 9 3 6 -3 8 4 6 15 -3 18 5 24 26 22 4 -1 6 12 5 28
-2 26 0 28 18 18 20 -10 20 -10 6 7 -8 10 -10 16 -4 12 5 -3 23 3 40 15 16 11
21 18 12 14 -10 -3 -20 -1 -23 5 -4 5 -3 9 2 8 4 -1 19 -1 32 0 20 1 22 3 11
16 -11 13 -10 14 2 10 9 -4 18 0 21 9 4 9 14 13 29 9 19 -4 20 -3 8 7 -12 9
-9 10 15 6 17 -4 26 -3 20 1 -5 4 -11 14 -13 22 -3 12 0 12 13 1 13 -11 15
-10 10 3 -4 8 -1 18 6 23 8 5 10 3 4 -6 -5 -9 -4 -11 4 -6 9 6 9 11 1 21 -8
10 -8 15 1 21 8 5 9 3 4 -6 -5 -8 -3 -11 6 -8 8 3 13 11 11 17 -1 6 3 11 9 11
5 0 7 4 4 10 -3 5 1 10 9 10 10 0 13 6 10 15 -4 10 0 15 11 15 10 0 15 5 12
14 -4 9 2 12 18 10 13 -1 26 4 29 12 4 10 2 12 -6 8 -7 -4 -8 -3 -4 5 6 9 11
9 21 1 12 -10 13 -8 10 10 -4 19 -2 20 12 8 12 -9 15 -9 9 -1 -4 8 -2 13 4 13
6 0 8 5 4 12 -5 8 -2 9 9 5 19 -7 33 10 29 36 -2 9 3 17 10 17 10 0 9 3 -2 9
-8 6 -18 7 -24 4 -5 -4 -6 -1 -2 6 5 7 13 10 20 8 6 -3 12 3 12 12 0 9 4 27 8
41 7 24 6 24 -8 6 -9 -11 -16 -15 -16 -8 0 7 9 17 20 24 11 7 20 21 20 30 0
11 5 15 15 12 11 -5 13 -2 9 10 -4 11 -1 16 11 16 9 0 19 9 22 20 3 11 9 17
14 15 4 -3 6 4 4 15 -2 11 0 18 6 15 5 -4 9 0 10 7 0 7 4 4 9 -7 6 -14 9 -15
9 -4 1 8 -5 21 -11 28 -10 11 -10 12 -1 7 19 -11 13 531 -5 543 -8 5 -13 11
-13 15 3 19 0 27 -8 22 -11 -7 -8 21 4 31 4 4 5 2 0 -6 -6 -10 -4 -12 4 -7 9
6 9 11 0 22 -6 8 -8 14 -5 14 4 0 -2 9 -13 21 -17 18 -19 49 -4 49 3 0 2 -8
-2 -17 -5 -14 -3 -15 5 -7 9 9 7 20 -6 45 -13 27 -14 31 -2 22 19 -16 32 -5
16 14 -9 11 -9 17 3 24 8 5 9 9 3 9 -7 0 -14 6 -17 13 -3 8 1 14 9 14 8 0 14
-5 14 -10 0 -6 3 -7 7 -4 3 4 -2 16 -12 27 -15 17 -16 20 -3 15 9 -4 19 -1 23
5 3 6 1 9 -6 8 -6 -2 -14 3 -17 11 -3 9 0 11 9 6 12 -7 12 -5 1 6 -11 12 -14
12 -22 -1 -12 -19 -12 -13 -1 28 8 26 7 34 -5 39 -7 3 -14 9 -14 15 0 5 4 7 9
3 5 -3 13 0 17 6 4 7 3 9 -4 5 -6 -3 -14 -1 -18 5 -3 6 -1 15 7 19 9 6 5 11
-16 16 -26 6 -27 8 -10 15 18 7 18 8 -3 8 -13 1 -20 5 -17 11 4 6 12 7 18 3 7
-4 6 0 -2 10 -7 9 -17 15 -20 12 -4 -2 -8 2 -8 10 0 18 9 19 27 3 8 -7 6 -3
-4 9 -11 13 -24 19 -34 16 -12 -4 -12 -1 3 10 20 16 20 16 -3 12 -20 -4 -22
-2 -12 10 10 12 9 15 -4 15 -10 0 -14 5 -11 10 3 6 0 10 -7 10 -11 0 -10 2 0
9 10 6 9 10 -7 14 -13 3 -19 11 -16 19 3 7 -1 22 -8 32 -11 15 -16 16 -22 6
-6 -9 -4 -11 5 -5 9 5 11 4 6 -4 -11 -17 -26 -3 -19 16 5 13 2 15 -12 10 -15
-6 -16 -5 -5 8 9 11 9 15 1 15 -7 0 -9 5 -5 13 5 7 1 7 -12 -3 -10 -8 -16 -11
-13 -7 4 5 -2 18 -13 30 -10 12 -29 33 -41 47 -12 15 -16 19 -9 10 6 -9 12
-20 12 -25 0 -4 -9 4 -21 19 -11 14 -17 31 -13 37 4 7 3 9 -4 5 -5 -3 -13 0
-16 6 -3 7 -4 2 -1 -12 5 -25 5 -25 -8 2 -10 21 -16 24 -30 17 -10 -6 -17 -7
-16 -2 5 20 -14 41 -29 35 -14 -5 -15 -3 -5 9 10 12 8 15 -8 16 -12 1 -17 -3
-13 -9 4 -7 2 -8 -4 -4 -6 4 -9 13 -6 21 4 9 0 12 -14 8 -11 -2 -23 0 -26 6
-5 7 0 9 11 5 15 -5 15 -4 3 4 -10 8 -19 7 -29 -1 -12 -9 -13 -9 -7 1 4 7 2
12 -4 12 -6 0 -8 4 -5 10 3 6 -1 7 -9 4 -9 -3 -16 -2 -16 4 0 5 -7 13 -16 16
-14 5 -15 4 -4 -9 11 -13 10 -14 -4 -9 -9 3 -16 10 -16 14 0 4 -7 11 -16 14
-8 3 -12 2 -9 -3 3 -5 0 -13 -7 -17 -7 -4 -10 -4 -6 1 5 5 -1 15 -13 23 -11 8
-18 20 -15 28 3 8 1 14 -4 14 -6 0 -10 -6 -10 -14 0 -8 -4 -17 -9 -20 -5 -4
-7 2 -4 13 3 10 0 22 -6 25 -7 5 -9 0 -5 -11 5 -17 5 -17 -9 -1 -11 14 -16 15
-27 5 -10 -9 -11 -9 -6 1 5 8 0 12 -16 12 -16 0 -19 3 -10 9 11 7 10 9 -3 14
-9 4 -13 3 -10 -2 3 -5 1 -12 -5 -16 -5 -3 -10 1 -10 9 0 8 -5 18 -12 22 -7 4
-8 3 -4 -4 4 -7 2 -12 -3 -12 -6 0 -11 4 -11 9 0 5 -12 8 -26 6 -18 -2 -24 2
-20 11 3 8 2 13 -2 13 -4 -1 -11 0 -17 1 -5 1 -26 1 -46 0 -25 -1 -38 4 -42
14 -4 9 -12 16 -18 16 -8 0 -7 -5 2 -17 13 -17 13 -17 -7 0 -19 16 -54 17
-437 16 -229 -1 -417 -6 -417 -10 0 -5 -5 -9 -11 -9 -5 0 -7 5 -4 10 8 13 4
12 -16 -3z m855 -5 c3 -5 -1 -9 -9 -9 -8 0 -12 4 -9 9 3 4 7 8 9 8 2 0 6 -4 9
-8z m140 -20 c3 -5 -1 -9 -9 -9 -8 0 -12 4 -9 9 3 4 7 8 9 8 2 0 6 -4 9 -8z
m-1321 -77 c-3 -9 -8 -14 -10 -11 -3 3 -2 9 2 15 9 16 15 13 8 -4z m-220 -60
c-3 -9 -8 -14 -10 -11 -3 3 -2 9 2 15 9 16 15 13 8 -4z m2415 -940 c-3 -3 -9
2 -12 12 -6 14 -5 15 5 6 7 -7 10 -15 7 -18z m-2851 -39 c-8 -8 -17 -12 -21
-9 -3 3 2 12 12 19 22 16 29 9 9 -10z m2748 -875 c3 -5 2 -12 -3 -15 -5 -3 -9
1 -9 9 0 17 3 19 12 6z m-2435 -225 c0 -11 -19 -15 -25 -6 -3 5 1 10 9 10 9 0
16 -2 16 -4z m95 -195 c-3 -6 -11 -11 -16 -11 -5 0 -4 6 3 14 14 16 24 13 13
-3z m1915 13 c0 -8 -19 -13 -24 -6 -3 5 1 9 9 9 8 0 15 -2 15 -3z m-185 -194
c3 -6 -1 -7 -9 -4 -18 7 -21 14 -7 14 6 0 13 -4 16 -10z m-1615 -49 c0 -5 7
-17 16 -25 8 -9 11 -16 6 -16 -5 0 -17 11 -26 25 -9 14 -12 25 -6 25 5 0 10
-4 10 -9z m1434 -72 c-3 -5 -10 -7 -15 -3 -5 3 -7 10 -3 15 3 5 10 7 15 3 5
-3 7 -10 3 -15z m-304 -147 c0 -4 -10 -13 -22 -21 -23 -14 -23 -14 -4 8 20 22
26 25 26 13z m-790 -78 c0 -8 -19 -13 -24 -6 -3 5 1 9 9 9 8 0 15 -2 15 -3z
m636 -1 c-10 -11 -37 -12 -30 -2 3 5 12 9 21 9 9 0 13 -3 9 -7z"/>
<path d="M863 2934 c0 -7 6 -10 14 -7 7 3 13 8 13 12 0 4 -6 8 -13 8 -8 0 -14
-6 -14 -13z"/>
<path d="M800 2931 c0 -7 -4 -10 -8 -7 -5 3 -9 -2 -9 -10 0 -13 2 -13 16 0 8
9 12 19 8 22 -4 4 -7 2 -7 -5z"/>
<path d="M2575 2741 c-3 -5 -1 -12 5 -16 5 -3 10 1 10 9 0 18 -6 21 -15 7z"/>
<path d="M2715 2610 c3 -5 8 -10 11 -10 2 0 4 5 4 10 0 6 -5 10 -11 10 -5 0
-7 -4 -4 -10z"/>
<path d="M103 2015 c0 -8 4 -12 9 -9 5 3 6 10 3 15 -9 13 -12 11 -12 -6z"/>
<path d="M33 1778 c3 -9 1 -19 -6 -22 -9 -3 -9 -5 0 -5 18 -1 23 13 11 29 -8
12 -9 12 -5 -2z"/>
<path d="M556 382 c-3 -5 1 -9 9 -9 8 0 12 4 9 9 -3 4 -7 8 -9 8 -2 0 -6 -4
-9 -8z"/>
</g>
</svg>
